<mxfile host="app.diagrams.net" modified="2021-05-26T08:35:38.610Z" agent="5.0 (Windows NT 10.0; Win64; x64) AppleWebKit/537.36 (KHTML, like Gecko) Chrome/90.0.4430.212 Safari/537.36 Edg/90.0.818.66" etag="R84wLxIMZrqePOoSDONx" version="14.7.1" type="github">
  <diagram id="AQ8A16Y2e5UGM0H-IAkx" name="Page-1">
    <mxGraphModel dx="782" dy="437" grid="1" gridSize="10" guides="1" tooltips="1" connect="1" arrows="1" fold="1" page="1" pageScale="1" pageWidth="827" pageHeight="1169" math="0" shadow="0">
      <root>
        <mxCell id="0" />
        <mxCell id="1" parent="0" />
        <mxCell id="01rf1_7VFEJ_MJrwa42o-5" style="edgeStyle=orthogonalEdgeStyle;rounded=0;orthogonalLoop=1;jettySize=auto;html=1;entryX=0;entryY=0.5;entryDx=0;entryDy=0;" edge="1" parent="1" source="01rf1_7VFEJ_MJrwa42o-1" target="01rf1_7VFEJ_MJrwa42o-4">
          <mxGeometry relative="1" as="geometry" />
        </mxCell>
        <mxCell id="01rf1_7VFEJ_MJrwa42o-1" value="发送消息" style="rounded=0;whiteSpace=wrap;html=1;" vertex="1" parent="1">
          <mxGeometry x="120" y="180" width="120" height="60" as="geometry" />
        </mxCell>
        <mxCell id="01rf1_7VFEJ_MJrwa42o-3" style="edgeStyle=orthogonalEdgeStyle;rounded=0;orthogonalLoop=1;jettySize=auto;html=1;" edge="1" parent="1" source="01rf1_7VFEJ_MJrwa42o-2" target="01rf1_7VFEJ_MJrwa42o-1">
          <mxGeometry relative="1" as="geometry" />
        </mxCell>
        <mxCell id="01rf1_7VFEJ_MJrwa42o-2" value="Actor" style="shape=umlActor;verticalLabelPosition=bottom;verticalAlign=top;html=1;outlineConnect=0;" vertex="1" parent="1">
          <mxGeometry x="40" y="180" width="30" height="60" as="geometry" />
        </mxCell>
        <mxCell id="01rf1_7VFEJ_MJrwa42o-8" style="edgeStyle=orthogonalEdgeStyle;rounded=0;orthogonalLoop=1;jettySize=auto;html=1;entryX=0.5;entryY=0;entryDx=0;entryDy=0;" edge="1" parent="1" source="01rf1_7VFEJ_MJrwa42o-4" target="01rf1_7VFEJ_MJrwa42o-6">
          <mxGeometry relative="1" as="geometry" />
        </mxCell>
        <mxCell id="01rf1_7VFEJ_MJrwa42o-10" style="edgeStyle=orthogonalEdgeStyle;rounded=0;orthogonalLoop=1;jettySize=auto;html=1;" edge="1" parent="1" source="01rf1_7VFEJ_MJrwa42o-4" target="01rf1_7VFEJ_MJrwa42o-7">
          <mxGeometry relative="1" as="geometry" />
        </mxCell>
        <mxCell id="01rf1_7VFEJ_MJrwa42o-4" value="队列" style="rounded=0;whiteSpace=wrap;html=1;" vertex="1" parent="1">
          <mxGeometry x="340" y="180" width="120" height="60" as="geometry" />
        </mxCell>
        <mxCell id="01rf1_7VFEJ_MJrwa42o-12" value="" style="edgeStyle=orthogonalEdgeStyle;rounded=0;orthogonalLoop=1;jettySize=auto;html=1;" edge="1" parent="1" source="01rf1_7VFEJ_MJrwa42o-6" target="01rf1_7VFEJ_MJrwa42o-11">
          <mxGeometry relative="1" as="geometry" />
        </mxCell>
        <mxCell id="01rf1_7VFEJ_MJrwa42o-14" value="" style="edgeStyle=orthogonalEdgeStyle;rounded=0;orthogonalLoop=1;jettySize=auto;html=1;" edge="1" parent="1" source="01rf1_7VFEJ_MJrwa42o-6" target="01rf1_7VFEJ_MJrwa42o-13">
          <mxGeometry relative="1" as="geometry" />
        </mxCell>
        <mxCell id="01rf1_7VFEJ_MJrwa42o-6" value="同步任务" style="rounded=1;whiteSpace=wrap;html=1;" vertex="1" parent="1">
          <mxGeometry x="340" y="280" width="120" height="60" as="geometry" />
        </mxCell>
        <mxCell id="01rf1_7VFEJ_MJrwa42o-7" value="异步任务" style="rounded=1;whiteSpace=wrap;html=1;" vertex="1" parent="1">
          <mxGeometry x="510" y="270" width="120" height="60" as="geometry" />
        </mxCell>
        <mxCell id="01rf1_7VFEJ_MJrwa42o-11" value="处理消息过程" style="rounded=1;whiteSpace=wrap;html=1;" vertex="1" parent="1">
          <mxGeometry x="140" y="280" width="120" height="60" as="geometry" />
        </mxCell>
        <mxCell id="01rf1_7VFEJ_MJrwa42o-13" value="存入缓存" style="rounded=1;whiteSpace=wrap;html=1;" vertex="1" parent="1">
          <mxGeometry x="340" y="390" width="120" height="60" as="geometry" />
        </mxCell>
      </root>
    </mxGraphModel>
  </diagram>
</mxfile>
